STARTFONT 2.1
COMMENT Recovered from bigfnt.kst (MIT CADR PDP-10 interchange font source (KST))
FONT MIT-CADR-BIGFNT-KST
SIZE 20 72 72
FONTBOUNDINGBOX 12 20 0 -4
STARTPROPERTIES 2
FONT_ASCENT 16
FONT_DESCENT 4
ENDPROPERTIES
CHARS 128
STARTCHAR C0000
ENCODING -1 0
SWIDTH 600 0
DWIDTH 12 0
BBX 6 20 3 -4
BITMAP
00
00
00
00
00
00
00
30
78
CC
CC
78
30
00
00
00
00
00
00
00
ENDCHAR
STARTCHAR C0001
ENCODING -1 1
SWIDTH 600 0
DWIDTH 12 0
BBX 1 20 0 -4
BITMAP
00
00
00
00
00
00
00
00
00
00
00
00
00
00
00
00
00
00
00
00
ENDCHAR
STARTCHAR C0002
ENCODING -1 2
SWIDTH 600 0
DWIDTH 12 0
BBX 1 20 0 -4
BITMAP
00
00
00
00
00
00
00
00
00
00
00
00
00
00
00
00
00
00
00
00
ENDCHAR
STARTCHAR C0003
ENCODING -1 3
SWIDTH 600 0
DWIDTH 12 0
BBX 1 20 0 -4
BITMAP
00
00
00
00
00
00
00
00
00
00
00
00
00
00
00
00
00
00
00
00
ENDCHAR
STARTCHAR C0004
ENCODING -1 4
SWIDTH 600 0
DWIDTH 12 0
BBX 1 20 0 -4
BITMAP
00
00
00
00
00
00
00
00
00
00
00
00
00
00
00
00
00
00
00
00
ENDCHAR
STARTCHAR C0005
ENCODING -1 5
SWIDTH 600 0
DWIDTH 12 0
BBX 1 20 0 -4
BITMAP
00
00
00
00
00
00
00
00
00
00
00
00
00
00
00
00
00
00
00
00
ENDCHAR
STARTCHAR C0006
ENCODING -1 6
SWIDTH 600 0
DWIDTH 12 0
BBX 7 20 3 -4
BITMAP
00
00
3C
7E
62
C0
C0
F0
FE
CC
C0
C0
E2
7E
3E
00
00
00
00
00
ENDCHAR
STARTCHAR C0007
ENCODING -1 7
SWIDTH 600 0
DWIDTH 12 0
BBX 1 20 0 -4
BITMAP
00
00
00
00
00
00
00
00
00
00
00
00
00
00
00
00
00
00
00
00
ENDCHAR
STARTCHAR C0008
ENCODING -1 8
SWIDTH 600 0
DWIDTH 12 0
BBX 1 20 0 -4
BITMAP
00
00
00
00
00
00
00
00
00
00
00
00
00
00
00
00
00
00
00
00
ENDCHAR
STARTCHAR C0009
ENCODING -1 9
SWIDTH 600 0
DWIDTH 12 0
BBX 1 20 0 -4
BITMAP
00
00
00
00
00
00
00
00
00
00
00
00
00
00
00
00
00
00
00
00
ENDCHAR
STARTCHAR C000A
ENCODING -1 10
SWIDTH 600 0
DWIDTH 12 0
BBX 1 20 0 -4
BITMAP
00
00
00
00
00
00
00
00
00
00
00
00
00
00
00
00
00
00
00
00
ENDCHAR
STARTCHAR C000B
ENCODING -1 11
SWIDTH 600 0
DWIDTH 12 0
BBX 11 20 0 -4
BITMAP
0000
0000
0600
0F00
1F80
36C0
6660
4620
0600
0600
0600
0600
0600
0600
0600
0600
0000
0000
0000
0000
ENDCHAR
STARTCHAR C000C
ENCODING -1 12
SWIDTH 600 0
DWIDTH 12 0
BBX 1 20 0 -4
BITMAP
00
00
00
00
00
00
00
00
00
00
00
00
00
00
00
00
00
00
00
00
ENDCHAR
STARTCHAR C000D
ENCODING -1 13
SWIDTH 600 0
DWIDTH 12 0
BBX 1 20 0 -4
BITMAP
00
00
00
00
00
00
00
00
00
00
00
00
00
00
00
00
00
00
00
00
ENDCHAR
STARTCHAR C000E
ENCODING -1 14
SWIDTH 600 0
DWIDTH 12 0
BBX 1 20 0 -4
BITMAP
00
00
00
00
00
00
00
00
00
00
00
00
00
00
00
00
00
00
00
00
ENDCHAR
STARTCHAR C000F
ENCODING -1 15
SWIDTH 600 0
DWIDTH 12 0
BBX 1 20 0 -4
BITMAP
00
00
00
00
00
00
00
00
00
00
00
00
00
00
00
00
00
00
00
00
ENDCHAR
STARTCHAR C0010
ENCODING -1 16
SWIDTH 600 0
DWIDTH 12 0
BBX 1 20 0 -4
BITMAP
00
00
00
00
00
00
00
00
00
00
00
00
00
00
00
00
00
00
00
00
ENDCHAR
STARTCHAR C0011
ENCODING -1 17
SWIDTH 600 0
DWIDTH 12 0
BBX 1 20 0 -4
BITMAP
00
00
00
00
00
00
00
00
00
00
00
00
00
00
00
00
00
00
00
00
ENDCHAR
STARTCHAR C0012
ENCODING -1 18
SWIDTH 600 0
DWIDTH 12 0
BBX 8 20 2 -4
BITMAP
00
00
3C
7E
C3
C3
C3
C3
C3
C3
C3
C3
C3
C3
C3
00
00
00
00
00
ENDCHAR
STARTCHAR C0013
ENCODING -1 19
SWIDTH 600 0
DWIDTH 12 0
BBX 8 20 2 -4
BITMAP
00
00
00
C3
C3
C3
C3
C3
C3
C3
C3
C3
C3
7E
3C
00
00
00
00
00
ENDCHAR
STARTCHAR C0014
ENCODING -1 20
SWIDTH 600 0
DWIDTH 12 0
BBX 1 20 0 -4
BITMAP
00
00
00
00
00
00
00
00
00
00
00
00
00
00
00
00
00
00
00
00
ENDCHAR
STARTCHAR C0015
ENCODING -1 21
SWIDTH 600 0
DWIDTH 12 0
BBX 1 20 0 -4
BITMAP
00
00
00
00
00
00
00
00
00
00
00
00
00
00
00
00
00
00
00
00
ENDCHAR
STARTCHAR C0016
ENCODING -1 22
SWIDTH 600 0
DWIDTH 12 0
BBX 1 20 0 -4
BITMAP
00
00
00
00
00
00
00
00
00
00
00
00
00
00
00
00
00
00
00
00
ENDCHAR
STARTCHAR C0017
ENCODING -1 23
SWIDTH 600 0
DWIDTH 12 0
BBX 1 20 0 -4
BITMAP
00
00
00
00
00
00
00
00
00
00
00
00
00
00
00
00
00
00
00
00
ENDCHAR
STARTCHAR C0018
ENCODING -1 24
SWIDTH 600 0
DWIDTH 12 0
BBX 11 20 0 -4
BITMAP
0000
0000
0000
0000
0000
0800
1800
3000
7FE0
7FE0
3000
1800
0800
0000
0000
0000
0000
0000
0000
0000
ENDCHAR
STARTCHAR C0019
ENCODING -1 25
SWIDTH 600 0
DWIDTH 12 0
BBX 11 20 0 -4
BITMAP
0000
0000
0000
0000
0000
0300
0180
00C0
7FE0
7FE0
00C0
0180
0300
0000
0000
0000
0000
0000
0000
0000
ENDCHAR
STARTCHAR C001A
ENCODING -1 26
SWIDTH 600 0
DWIDTH 12 0
BBX 1 20 0 -4
BITMAP
00
00
00
00
00
00
00
00
00
00
00
00
00
00
00
00
00
00
00
00
ENDCHAR
STARTCHAR C001B
ENCODING -1 27
SWIDTH 600 0
DWIDTH 12 0
BBX 8 20 2 -4
BITMAP
00
18
18
18
3C
3C
7E
FF
FF
7E
3C
3C
18
18
18
00
00
00
00
00
ENDCHAR
STARTCHAR C001C
ENCODING -1 28
SWIDTH 600 0
DWIDTH 12 0
BBX 1 20 0 -4
BITMAP
00
00
00
00
00
00
00
00
00
00
00
00
00
00
00
00
00
00
00
00
ENDCHAR
STARTCHAR C001D
ENCODING -1 29
SWIDTH 600 0
DWIDTH 12 0
BBX 1 20 0 -4
BITMAP
00
00
00
00
00
00
00
00
00
00
00
00
00
00
00
00
00
00
00
00
ENDCHAR
STARTCHAR C001E
ENCODING -1 30
SWIDTH 600 0
DWIDTH 12 0
BBX 12 20 0 -4
BITMAP
0000
0000
0000
0000
0000
FFF0
FFF0
0000
FFF0
FFF0
0000
FFF0
FFF0
0000
0000
0000
0000
0000
0000
0000
ENDCHAR
STARTCHAR C001F
ENCODING -1 31
SWIDTH 600 0
DWIDTH 12 0
BBX 1 20 0 -4
BITMAP
00
00
00
00
00
00
00
00
00
00
00
00
00
00
00
00
00
00
00
00
ENDCHAR
STARTCHAR C0020
ENCODING -1 32
SWIDTH 600 0
DWIDTH 12 0
BBX 1 20 0 -4
BITMAP
00
00
00
00
00
00
00
00
00
00
00
00
00
00
00
00
00
00
00
00
ENDCHAR
STARTCHAR C0021
ENCODING -1 33
SWIDTH 600 0
DWIDTH 12 0
BBX 7 20 0 -4
BITMAP
00
00
06
06
06
06
06
06
06
06
06
06
00
00
06
06
00
00
00
00
ENDCHAR
STARTCHAR C0022
ENCODING -1 34
SWIDTH 600 0
DWIDTH 12 0
BBX 9 20 0 -4
BITMAP
0000
1980
1980
1980
1980
1980
0000
0000
0000
0000
0000
0000
0000
0000
0000
0000
0000
0000
0000
0000
ENDCHAR
STARTCHAR C0023
ENCODING -1 35
SWIDTH 600 0
DWIDTH 12 0
BBX 10 20 0 -4
BITMAP
0000
0000
06C0
06C0
0D80
1FC0
1FC0
0D80
0D80
1B00
1B00
3F80
3F80
1B00
3600
3600
0000
0000
0000
0000
ENDCHAR
STARTCHAR C0024
ENCODING -1 36
SWIDTH 600 0
DWIDTH 12 0
BBX 9 20 0 -4
BITMAP
0000
0000
0400
0400
1F00
3F80
3580
3400
1C00
0700
0580
3580
3F80
1F00
0400
0400
0000
0000
0000
0000
ENDCHAR
STARTCHAR C0025
ENCODING -1 37
SWIDTH 600 0
DWIDTH 12 0
BBX 11 20 0 -4
BITMAP
0000
0000
1860
24C0
24C0
2580
1980
0300
0300
0600
0600
0CC0
0D20
1920
1920
30C0
0000
0000
0000
0000
ENDCHAR
STARTCHAR C0026
ENCODING -1 38
SWIDTH 600 0
DWIDTH 12 0
BBX 10 20 0 -4
BITMAP
0000
0000
0E00
1F00
3180
3180
1A00
0E00
1C00
3400
3600
32C0
3380
3100
1F80
0CC0
0000
0000
0000
0000
ENDCHAR
STARTCHAR C0027
ENCODING -1 39
SWIDTH 600 0
DWIDTH 12 0
BBX 8 20 0 -4
BITMAP
00
00
06
0F
0F
03
06
0C
08
00
00
00
00
00
00
00
00
00
00
00
ENDCHAR
STARTCHAR C0028
ENCODING -1 40
SWIDTH 600 0
DWIDTH 12 0
BBX 9 20 0 -4
BITMAP
0000
0000
0180
0300
0700
0600
0E00
0C00
0C00
0C00
0C00
0E00
0600
0700
0300
0180
0000
0000
0000
0000
ENDCHAR
STARTCHAR C0029
ENCODING -1 41
SWIDTH 600 0
DWIDTH 12 0
BBX 8 20 0 -4
BITMAP
00
00
18
0C
0E
06
07
03
03
03
03
07
06
0E
0C
18
00
00
00
00
ENDCHAR
STARTCHAR C002A
ENCODING -1 42
SWIDTH 600 0
DWIDTH 12 0
BBX 10 20 0 -4
BITMAP
0000
0000
0000
0000
0600
2640
36C0
1980
0F00
1980
36C0
2640
0600
0000
0000
0000
0000
0000
0000
0000
ENDCHAR
STARTCHAR C002B
ENCODING -1 43
SWIDTH 600 0
DWIDTH 12 0
BBX 10 20 0 -4
BITMAP
0000
0000
0000
0000
0000
0600
0600
0600
3FC0
3FC0
0600
0600
0600
0000
0000
0000
0000
0000
0000
0000
ENDCHAR
STARTCHAR C002C
ENCODING -1 44
SWIDTH 600 0
DWIDTH 12 0
BBX 8 20 0 -4
BITMAP
00
00
00
00
00
00
00
00
00
00
00
06
0F
0F
03
06
0C
08
00
00
ENDCHAR
STARTCHAR C002D
ENCODING -1 45
SWIDTH 600 0
DWIDTH 12 0
BBX 10 20 0 -4
BITMAP
0000
0000
0000
0000
0000
0000
0000
0000
3FC0
3FC0
0000
0000
0000
0000
0000
0000
0000
0000
0000
0000
ENDCHAR
STARTCHAR C002E
ENCODING -1 46
SWIDTH 600 0
DWIDTH 12 0
BBX 8 20 0 -4
BITMAP
00
00
00
00
00
00
00
00
00
00
00
00
06
0F
0F
06
00
00
00
00
ENDCHAR
STARTCHAR C002F
ENCODING -1 47
SWIDTH 600 0
DWIDTH 12 0
BBX 10 20 0 -4
BITMAP
0000
0000
00C0
00C0
0180
0180
0300
0300
0600
0600
0C00
0C00
1800
1800
3000
3000
0000
0000
0000
0000
ENDCHAR
STARTCHAR C0030
ENCODING -1 48
SWIDTH 600 0
DWIDTH 12 0
BBX 11 20 0 -4
BITMAP
0000
0000
0000
0700
0F80
1DE0
18C0
18C0
19C0
1AC0
1CC0
18C0
18C0
3DC0
0F80
0700
0000
0000
0000
0000
ENDCHAR
STARTCHAR C0031
ENCODING -1 49
SWIDTH 600 0
DWIDTH 12 0
BBX 10 20 0 -4
BITMAP
0000
0000
0000
0600
0E00
1E00
0600
0600
0600
0600
0600
0600
0600
0600
3FC0
3FC0
0000
0000
0000
0000
ENDCHAR
STARTCHAR C0032
ENCODING -1 50
SWIDTH 600 0
DWIDTH 12 0
BBX 10 20 0 -4
BITMAP
0000
0000
0000
0F00
1F80
30C0
30C0
00C0
0180
0300
0600
0C00
1800
3000
3FC0
3FC0
0000
0000
0000
0000
ENDCHAR
STARTCHAR C0033
ENCODING -1 51
SWIDTH 600 0
DWIDTH 12 0
BBX 10 20 0 -4
BITMAP
0000
0000
0000
0F00
1F80
30C0
30C0
00C0
0180
0700
0180
00C0
30C0
30C0
1F80
0F00
0000
0000
0000
0000
ENDCHAR
STARTCHAR C0034
ENCODING -1 52
SWIDTH 600 0
DWIDTH 12 0
BBX 10 20 0 -4
BITMAP
0000
0000
0000
0180
0300
0600
0C00
1980
3180
3180
3FC0
3FC0
0180
0180
0180
0180
0000
0000
0000
0000
ENDCHAR
STARTCHAR C0035
ENCODING -1 53
SWIDTH 600 0
DWIDTH 12 0
BBX 10 20 0 -4
BITMAP
0000
0000
0000
3FC0
3FC0
3000
3000
3000
3F00
1F80
00C0
00C0
30C0
30C0
1F80
0F00
0000
0000
0000
0000
ENDCHAR
STARTCHAR C0036
ENCODING -1 54
SWIDTH 600 0
DWIDTH 12 0
BBX 10 20 0 -4
BITMAP
0000
0000
0000
0F00
1F80
30C0
3000
3000
3700
3F80
39C0
30C0
30C0
39C0
1F80
0F00
0000
0000
0000
0000
ENDCHAR
STARTCHAR C0037
ENCODING -1 55
SWIDTH 600 0
DWIDTH 12 0
BBX 10 20 0 -4
BITMAP
0000
0000
0000
3FC0
3FC0
00C0
0180
0180
0300
0600
0600
0C00
0C00
1800
1800
1800
0000
0000
0000
0000
ENDCHAR
STARTCHAR C0038
ENCODING -1 56
SWIDTH 600 0
DWIDTH 12 0
BBX 9 20 0 -4
BITMAP
0000
0000
0000
0E00
1F00
3180
3180
3180
1B00
0E00
1B00
3180
3180
3180
1F00
0E00
0000
0000
0000
0000
ENDCHAR
STARTCHAR C0039
ENCODING -1 57
SWIDTH 600 0
DWIDTH 12 0
BBX 10 20 0 -4
BITMAP
0000
0000
0000
0F00
1F80
39C0
30C0
30C0
39C0
1FC0
0EC0
00C0
00C0
30C0
1F80
0F00
0000
0000
0000
0000
ENDCHAR
STARTCHAR C003A
ENCODING -1 58
SWIDTH 600 0
DWIDTH 12 0
BBX 8 20 0 -4
BITMAP
00
00
00
00
06
0F
0F
06
00
00
06
0F
0F
06
00
00
00
00
00
00
ENDCHAR
STARTCHAR C003B
ENCODING -1 59
SWIDTH 600 0
DWIDTH 12 0
BBX 8 20 0 -4
BITMAP
00
00
00
00
06
0F
0F
06
00
00
00
06
0F
0F
03
06
0C
08
00
00
ENDCHAR
STARTCHAR C003C
ENCODING -1 60
SWIDTH 600 0
DWIDTH 12 0
BBX 10 20 0 -4
BITMAP
0000
0000
0000
0000
0000
00C0
0380
0E00
3800
3800
0E00
0380
00C0
0000
0000
0000
0000
0000
0000
0000
ENDCHAR
STARTCHAR C003D
ENCODING -1 61
SWIDTH 600 0
DWIDTH 12 0
BBX 10 20 0 -4
BITMAP
0000
0000
0000
0000
0000
0000
3FC0
3FC0
0000
0000
3FC0
3FC0
0000
0000
0000
0000
0000
0000
0000
0000
ENDCHAR
STARTCHAR C003E
ENCODING -1 62
SWIDTH 600 0
DWIDTH 12 0
BBX 10 20 0 -4
BITMAP
0000
0000
0000
0000
0000
3000
1C00
0700
01C0
01C0
0700
1C00
3000
0000
0000
0000
0000
0000
0000
0000
ENDCHAR
STARTCHAR C003F
ENCODING -1 63
SWIDTH 600 0
DWIDTH 12 0
BBX 10 20 0 -4
BITMAP
0000
0000
0F00
1F80
30C0
30C0
00C0
0180
0300
0600
0C00
0C00
0000
0000
0C00
0C00
0000
0000
0000
0000
ENDCHAR
STARTCHAR C0040
ENCODING -1 64
SWIDTH 600 0
DWIDTH 12 0
BBX 8 20 2 -4
BITMAP
00
00
00
18
7E
C3
81
99
BD
A5
A5
9E
80
C3
7E
18
00
00
00
00
ENDCHAR
STARTCHAR C0041
ENCODING -1 65
SWIDTH 600 0
DWIDTH 12 0
BBX 10 20 0 -4
BITMAP
0000
0000
0F00
1F80
39C0
30C0
30C0
30C0
30C0
3FC0
3FC0
30C0
30C0
30C0
30C0
30C0
0000
0000
0000
0000
ENDCHAR
STARTCHAR C0042
ENCODING -1 66
SWIDTH 600 0
DWIDTH 12 0
BBX 10 20 0 -4
BITMAP
0000
0000
3F00
3F80
31C0
30C0
30C0
3180
3F80
3F80
3180
30C0
30C0
31C0
3F80
3F00
0000
0000
0000
0000
ENDCHAR
STARTCHAR C0043
ENCODING -1 67
SWIDTH 600 0
DWIDTH 12 0
BBX 10 20 0 -4
BITMAP
0000
0000
0F00
1F80
39C0
30C0
3000
3000
3000
3000
3000
3000
30C0
39C0
1F80
0F00
0000
0000
0000
0000
ENDCHAR
STARTCHAR C0044
ENCODING -1 68
SWIDTH 600 0
DWIDTH 12 0
BBX 10 20 0 -4
BITMAP
0000
0000
3F00
3F80
31C0
30C0
30C0
30C0
30C0
30C0
30C0
30C0
30C0
31C0
3F80
3F00
0000
0000
0000
0000
ENDCHAR
STARTCHAR C0045
ENCODING -1 69
SWIDTH 600 0
DWIDTH 12 0
BBX 10 20 0 -4
BITMAP
0000
0000
3FC0
3FC0
3000
3000
3000
3000
3F00
3F00
3000
3000
3000
3000
3FC0
3FC0
0000
0000
0000
0000
ENDCHAR
STARTCHAR C0046
ENCODING -1 70
SWIDTH 600 0
DWIDTH 12 0
BBX 10 20 0 -4
BITMAP
0000
0000
3FC0
3FC0
3000
3000
3000
3000
3F00
3F00
3000
3000
3000
3000
3000
3000
0000
0000
0000
0000
ENDCHAR
STARTCHAR C0047
ENCODING -1 71
SWIDTH 600 0
DWIDTH 12 0
BBX 10 20 0 -4
BITMAP
0000
0000
0F00
1F80
39C0
30C0
3000
3000
3000
33C0
33C0
30C0
30C0
39C0
1F80
0F00
0000
0000
0000
0000
ENDCHAR
STARTCHAR C0048
ENCODING -1 72
SWIDTH 600 0
DWIDTH 12 0
BBX 10 20 0 -4
BITMAP
0000
0000
30C0
30C0
30C0
30C0
30C0
30C0
3FC0
3FC0
30C0
30C0
30C0
30C0
30C0
30C0
0000
0000
0000
0000
ENDCHAR
STARTCHAR C0049
ENCODING -1 73
SWIDTH 600 0
DWIDTH 12 0
BBX 9 20 0 -4
BITMAP
0000
0000
1F80
1F80
0600
0600
0600
0600
0600
0600
0600
0600
0600
0600
1F80
1F80
0000
0000
0000
0000
ENDCHAR
STARTCHAR C004A
ENCODING -1 74
SWIDTH 600 0
DWIDTH 12 0
BBX 10 20 0 -4
BITMAP
0000
0000
00C0
00C0
00C0
00C0
00C0
00C0
00C0
00C0
00C0
00C0
30C0
30C0
1F80
0F00
0000
0000
0000
0000
ENDCHAR
STARTCHAR C004B
ENCODING -1 75
SWIDTH 600 0
DWIDTH 12 0
BBX 10 20 0 -4
BITMAP
0000
0000
30C0
30C0
3180
3300
3600
3C00
3800
3800
3C00
3600
3300
3180
30C0
30C0
0000
0000
0000
0000
ENDCHAR
STARTCHAR C004C
ENCODING -1 76
SWIDTH 600 0
DWIDTH 12 0
BBX 10 20 0 -4
BITMAP
0000
0000
3000
3000
3000
3000
3000
3000
3000
3000
3000
3000
3000
3000
3FC0
3FC0
0000
0000
0000
0000
ENDCHAR
STARTCHAR C004D
ENCODING -1 77
SWIDTH 600 0
DWIDTH 12 0
BBX 10 20 0 -4
BITMAP
0000
0000
30C0
39C0
3FC0
36C0
36C0
36C0
30C0
30C0
30C0
30C0
30C0
30C0
30C0
30C0
0000
0000
0000
0000
ENDCHAR
STARTCHAR C004E
ENCODING -1 78
SWIDTH 600 0
DWIDTH 12 0
BBX 10 20 0 -4
BITMAP
0000
0000
30C0
38C0
38C0
3CC0
3CC0
34C0
34C0
32C0
32C0
33C0
33C0
31C0
31C0
30C0
0000
0000
0000
0000
ENDCHAR
STARTCHAR C004F
ENCODING -1 79
SWIDTH 600 0
DWIDTH 12 0
BBX 10 20 0 -4
BITMAP
0000
0000
0F00
1F80
39C0
30C0
30C0
30C0
30C0
30C0
30C0
30C0
30C0
39C0
1F80
0F00
0000
0000
0000
0000
ENDCHAR
STARTCHAR C0050
ENCODING -1 80
SWIDTH 600 0
DWIDTH 12 0
BBX 10 20 0 -4
BITMAP
0000
0000
3F00
3F80
31C0
30C0
30C0
31C0
3F80
3F00
3000
3000
3000
3000
3000
3000
0000
0000
0000
0000
ENDCHAR
STARTCHAR C0051
ENCODING -1 81
SWIDTH 600 0
DWIDTH 12 0
BBX 10 20 0 -4
BITMAP
0000
0000
0F00
1F80
39C0
30C0
30C0
30C0
30C0
30C0
30C0
30C0
36C0
3BC0
1F80
0FC0
00C0
0000
0000
0000
ENDCHAR
STARTCHAR C0052
ENCODING -1 82
SWIDTH 600 0
DWIDTH 12 0
BBX 10 20 0 -4
BITMAP
0000
0000
3F00
3F80
31C0
30C0
30C0
31C0
3F80
3F00
3600
3300
3300
3180
3180
30C0
0000
0000
0000
0000
ENDCHAR
STARTCHAR C0053
ENCODING -1 83
SWIDTH 600 0
DWIDTH 12 0
BBX 10 20 0 -4
BITMAP
0000
0000
0F00
1F80
39C0
30C0
3000
3800
1F00
0F80
01C0
00C0
30C0
39C0
1F80
0F00
0000
0000
0000
0000
ENDCHAR
STARTCHAR C0054
ENCODING -1 84
SWIDTH 600 0
DWIDTH 12 0
BBX 10 20 0 -4
BITMAP
0000
0000
3FC0
3FC0
0600
0600
0600
0600
0600
0600
0600
0600
0600
0600
0600
0600
0000
0000
0000
0000
ENDCHAR
STARTCHAR C0055
ENCODING -1 85
SWIDTH 600 0
DWIDTH 12 0
BBX 10 20 0 -4
BITMAP
0000
0000
30C0
30C0
30C0
30C0
30C0
30C0
30C0
30C0
30C0
30C0
30C0
39C0
1F80
0F00
0000
0000
0000
0000
ENDCHAR
STARTCHAR C0056
ENCODING -1 86
SWIDTH 600 0
DWIDTH 12 0
BBX 10 20 0 -4
BITMAP
0000
0000
30C0
30C0
30C0
30C0
30C0
30C0
1980
1980
1980
0900
0F00
0F00
0600
0600
0000
0000
0000
0000
ENDCHAR
STARTCHAR C0057
ENCODING -1 87
SWIDTH 600 0
DWIDTH 12 0
BBX 10 20 0 -4
BITMAP
0000
0000
30C0
30C0
30C0
30C0
30C0
30C0
30C0
30C0
36C0
36C0
36C0
3FC0
39C0
30C0
0000
0000
0000
0000
ENDCHAR
STARTCHAR C0058
ENCODING -1 88
SWIDTH 600 0
DWIDTH 12 0
BBX 10 20 0 -4
BITMAP
0000
0000
30C0
30C0
1980
1980
0F00
0F00
0600
0600
0F00
0F00
1980
1980
30C0
30C0
0000
0000
0000
0000
ENDCHAR
STARTCHAR C0059
ENCODING -1 89
SWIDTH 600 0
DWIDTH 12 0
BBX 10 20 0 -4
BITMAP
0000
0000
30C0
30C0
30C0
30C0
1980
1980
0F00
0F00
0600
0600
0600
0600
0600
0600
0000
0000
0000
0000
ENDCHAR
STARTCHAR C005A
ENCODING -1 90
SWIDTH 600 0
DWIDTH 12 0
BBX 10 20 0 -4
BITMAP
0000
0000
3FC0
3FC0
0040
00C0
0180
0300
0600
0600
0C00
1800
3000
2000
3FC0
3FC0
0000
0000
0000
0000
ENDCHAR
STARTCHAR C005B
ENCODING -1 91
SWIDTH 600 0
DWIDTH 12 0
BBX 9 20 0 -4
BITMAP
0000
0000
0F80
0F80
0C00
0C00
0C00
0C00
0C00
0C00
0C00
0C00
0C00
0C00
0F80
0F80
0000
0000
0000
0000
ENDCHAR
STARTCHAR C005C
ENCODING -1 92
SWIDTH 600 0
DWIDTH 12 0
BBX 10 20 0 -4
BITMAP
0000
0000
3000
3000
1800
1800
0C00
0C00
0600
0600
0300
0300
0180
0180
00C0
00C0
0000
0000
0000
0000
ENDCHAR
STARTCHAR C005D
ENCODING -1 93
SWIDTH 600 0
DWIDTH 12 0
BBX 8 20 0 -4
BITMAP
00
00
1F
1F
03
03
03
03
03
03
03
03
03
03
1F
1F
00
00
00
00
ENDCHAR
STARTCHAR C005E
ENCODING -1 94
SWIDTH 600 0
DWIDTH 12 0
BBX 10 20 0 -4
BITMAP
0000
0000
0600
0F00
1980
36C0
0600
0600
0600
0600
0600
0600
0600
0600
0600
0600
0000
0000
0000
0000
ENDCHAR
STARTCHAR C005F
ENCODING -1 95
SWIDTH 600 0
DWIDTH 12 0
BBX 10 20 0 -4
BITMAP
0000
0000
0000
0000
0000
0400
0C00
1800
3FC0
3FC0
1800
0C00
0400
0000
0000
0000
0000
0000
0000
0000
ENDCHAR
STARTCHAR C0060
ENCODING -1 96
SWIDTH 600 0
DWIDTH 12 0
BBX 1 20 0 -4
BITMAP
00
00
00
00
00
00
00
00
00
00
00
00
00
00
00
00
00
00
00
00
ENDCHAR
STARTCHAR C0061
ENCODING -1 97
SWIDTH 600 0
DWIDTH 12 0
BBX 10 20 0 -4
BITMAP
0000
0000
0000
0000
0000
0000
0F00
1F80
30C0
00C0
1EC0
3FC0
31C0
31C0
3FC0
1EC0
0000
0000
0000
0000
ENDCHAR
STARTCHAR C0062
ENCODING -1 98
SWIDTH 600 0
DWIDTH 12 0
BBX 10 20 0 -4
BITMAP
0000
0000
3000
3000
3000
3000
3700
3F80
39C0
30C0
30C0
30C0
30C0
39C0
3F80
3700
0000
0000
0000
0000
ENDCHAR
STARTCHAR C0063
ENCODING -1 99
SWIDTH 600 0
DWIDTH 12 0
BBX 10 20 0 -4
BITMAP
0000
0000
0000
0000
0000
0000
0F00
1F80
38C0
3000
3000
3000
3000
38C0
1F80
0F00
0000
0000
0000
0000
ENDCHAR
STARTCHAR C0064
ENCODING -1 100
SWIDTH 600 0
DWIDTH 12 0
BBX 10 20 0 -4
BITMAP
0000
0000
00C0
00C0
00C0
00C0
0EC0
1FC0
39C0
30C0
30C0
30C0
30C0
39C0
1FC0
0EC0
0000
0000
0000
0000
ENDCHAR
STARTCHAR C0065
ENCODING -1 101
SWIDTH 600 0
DWIDTH 12 0
BBX 10 20 0 -4
BITMAP
0000
0000
0000
0000
0000
0000
0F00
1F80
30C0
30C0
3FC0
3FC0
3000
30C0
1FC0
0F80
0000
0000
0000
0000
ENDCHAR
STARTCHAR C0066
ENCODING -1 102
SWIDTH 600 0
DWIDTH 12 0
BBX 10 20 0 -4
BITMAP
0000
0000
0700
0F80
18C0
1800
1800
1800
3E00
3E00
1800
1800
1800
1800
1800
1800
0000
0000
0000
0000
ENDCHAR
STARTCHAR C0067
ENCODING -1 103
SWIDTH 600 0
DWIDTH 12 0
BBX 10 20 0 -4
BITMAP
0000
0000
0000
0000
0000
0000
0EC0
1FC0
39C0
30C0
30C0
30C0
30C0
39C0
1FC0
0EC0
00C0
00C0
1F80
0F00
ENDCHAR
STARTCHAR C0068
ENCODING -1 104
SWIDTH 600 0
DWIDTH 12 0
BBX 10 20 0 -4
BITMAP
0000
0000
3000
3000
3000
3000
3700
3F80
39C0
30C0
30C0
30C0
30C0
30C0
30C0
30C0
0000
0000
0000
0000
ENDCHAR
STARTCHAR C0069
ENCODING -1 105
SWIDTH 600 0
DWIDTH 12 0
BBX 7 20 0 -4
BITMAP
00
00
00
06
06
00
00
06
06
06
06
06
06
06
06
06
00
00
00
00
ENDCHAR
STARTCHAR C006A
ENCODING -1 106
SWIDTH 600 0
DWIDTH 12 0
BBX 9 20 0 -4
BITMAP
0000
0000
0000
0180
0180
0000
0000
0180
0180
0180
0180
0180
0180
0180
0180
0180
0180
3180
1F00
0E00
ENDCHAR
STARTCHAR C006B
ENCODING -1 107
SWIDTH 600 0
DWIDTH 12 0
BBX 10 20 0 -4
BITMAP
0000
0000
3000
3000
3000
30C0
3180
3300
3600
3C00
3800
3C00
3600
3300
3180
30C0
0000
0000
0000
0000
ENDCHAR
STARTCHAR C006C
ENCODING -1 108
SWIDTH 600 0
DWIDTH 12 0
BBX 7 20 0 -4
BITMAP
00
00
06
06
06
06
06
06
06
06
06
06
06
06
06
06
00
00
00
00
ENDCHAR
STARTCHAR C006D
ENCODING -1 109
SWIDTH 600 0
DWIDTH 12 0
BBX 8 20 2 -4
BITMAP
00
00
00
00
00
00
66
FF
DB
DB
DB
DB
DB
DB
DB
DB
00
00
00
00
ENDCHAR
STARTCHAR C006E
ENCODING -1 110
SWIDTH 600 0
DWIDTH 12 0
BBX 10 20 0 -4
BITMAP
0000
0000
0000
0000
0000
0000
3700
3F80
39C0
30C0
30C0
30C0
30C0
30C0
30C0
30C0
0000
0000
0000
0000
ENDCHAR
STARTCHAR C006F
ENCODING -1 111
SWIDTH 600 0
DWIDTH 12 0
BBX 10 20 0 -4
BITMAP
0000
0000
0000
0000
0000
0000
0F00
1F80
39C0
30C0
30C0
30C0
30C0
39C0
1F80
0F00
0000
0000
0000
0000
ENDCHAR
STARTCHAR C0070
ENCODING -1 112
SWIDTH 600 0
DWIDTH 12 0
BBX 10 20 0 -4
BITMAP
0000
0000
0000
0000
0000
0000
3700
3F80
39C0
30C0
30C0
30C0
30C0
39C0
3F80
3700
3000
3000
3000
3000
ENDCHAR
STARTCHAR C0071
ENCODING -1 113
SWIDTH 600 0
DWIDTH 12 0
BBX 10 20 0 -4
BITMAP
0000
0000
0000
0000
0000
0000
0EC0
1FC0
39C0
30C0
30C0
30C0
30C0
39C0
1FC0
0EC0
00C0
00C0
00C0
00C0
ENDCHAR
STARTCHAR C0072
ENCODING -1 114
SWIDTH 600 0
DWIDTH 12 0
BBX 10 20 0 -4
BITMAP
0000
0000
0000
0000
0000
0000
3700
3F80
38C0
3000
3000
3000
3000
3000
3000
3000
0000
0000
0000
0000
ENDCHAR
STARTCHAR C0073
ENCODING -1 115
SWIDTH 600 0
DWIDTH 12 0
BBX 10 20 0 -4
BITMAP
0000
0000
0000
0000
0000
0000
1F80
3FC0
30C0
3000
1F00
0F80
00C0
30C0
3FC0
1F80
0000
0000
0000
0000
ENDCHAR
STARTCHAR C0074
ENCODING -1 116
SWIDTH 600 0
DWIDTH 12 0
BBX 10 20 0 -4
BITMAP
0000
0000
0C00
0C00
0C00
3F00
3F00
0C00
0C00
0C00
0C00
0C00
0C00
0CC0
0F80
0700
0000
0000
0000
0000
ENDCHAR
STARTCHAR C0075
ENCODING -1 117
SWIDTH 600 0
DWIDTH 12 0
BBX 10 20 0 -4
BITMAP
0000
0000
0000
0000
0000
0000
30C0
30C0
30C0
30C0
30C0
30C0
30C0
39C0
1FC0
0EC0
0000
0000
0000
0000
ENDCHAR
STARTCHAR C0076
ENCODING -1 118
SWIDTH 600 0
DWIDTH 12 0
BBX 10 20 0 -4
BITMAP
0000
0000
0000
0000
0000
0000
30C0
30C0
30C0
30C0
1980
1980
1980
0F00
0600
0600
0000
0000
0000
0000
ENDCHAR
STARTCHAR C0077
ENCODING -1 119
SWIDTH 600 0
DWIDTH 12 0
BBX 10 20 0 -4
BITMAP
0000
0000
0000
0000
0000
0000
30C0
30C0
30C0
30C0
30C0
36C0
36C0
3FC0
39C0
30C0
0000
0000
0000
0000
ENDCHAR
STARTCHAR C0078
ENCODING -1 120
SWIDTH 600 0
DWIDTH 12 0
BBX 10 20 0 -4
BITMAP
0000
0000
0000
0000
0000
0000
30C0
30C0
1980
1980
0600
0600
1980
1980
30C0
30C0
0000
0000
0000
0000
ENDCHAR
STARTCHAR C0079
ENCODING -1 121
SWIDTH 600 0
DWIDTH 12 0
BBX 10 20 0 -4
BITMAP
0000
0000
0000
0000
0000
0000
30C0
30C0
30C0
30C0
30C0
30C0
30C0
39C0
1FC0
0EC0
00C0
00C0
1F80
0F00
ENDCHAR
STARTCHAR C007A
ENCODING -1 122
SWIDTH 600 0
DWIDTH 12 0
BBX 10 20 0 -4
BITMAP
0000
0000
0000
0000
0000
0000
3FC0
3FC0
0180
0300
0600
0C00
1800
3000
3FC0
3FC0
0000
0000
0000
0000
ENDCHAR
STARTCHAR C007B
ENCODING -1 123
SWIDTH 600 0
DWIDTH 12 0
BBX 9 20 0 -4
BITMAP
0000
0000
0380
0600
0C00
0600
0600
0600
1C00
1C00
0600
0600
0600
0C00
0600
0380
0000
0000
0000
0000
ENDCHAR
STARTCHAR C007C
ENCODING -1 124
SWIDTH 600 0
DWIDTH 12 0
BBX 7 20 0 -4
BITMAP
06
06
06
06
06
06
06
06
06
06
06
06
06
06
06
06
06
06
06
06
ENDCHAR
STARTCHAR C007D
ENCODING -1 125
SWIDTH 600 0
DWIDTH 12 0
BBX 9 20 0 -4
BITMAP
0000
0000
1C00
0600
0300
0600
0600
0600
0380
0380
0600
0600
0600
0300
0600
1C00
0000
0000
0000
0000
ENDCHAR
STARTCHAR C007E
ENCODING -1 126
SWIDTH 600 0
DWIDTH 12 0
BBX 12 20 0 -4
BITMAP
FFF0
8010
8010
8010
8010
8010
8010
8010
8010
8010
8010
8010
8010
8010
8010
8010
8010
8010
8010
FFF0
ENDCHAR
STARTCHAR C007F
ENCODING -1 127
SWIDTH 600 0
DWIDTH 12 0
BBX 12 20 0 -4
BITMAP
FFF0
FFF0
FFF0
FFF0
FFF0
FFF0
FFF0
FFF0
FFF0
FFF0
FFF0
FFF0
FFF0
FFF0
FFF0
FFF0
FFF0
FFF0
FFF0
FFF0
ENDCHAR
ENDFONT
